<?xml version="1.0" encoding="utf-8"?>
<!-- Generator: Adobe Illustrator 18.1.1, SVG Export Plug-In . SVG Version: 6.00 Build 0)  -->
<svg version="1.1" xmlns="http://www.w3.org/2000/svg" xmlns:xlink="http://www.w3.org/1999/xlink" x="0px" y="0px"
	 viewBox="-499 501 24 24" enable-background="new -499 501 24 24" xml:space="preserve">
<g id="Layer_1" display="none">
	<path display="inline" d="M-489,521v-6h4v6h5v-8h3l-10-9l-10,9h3v8H-489z"/>
</g>
<g id="Layer_2">
	<path fill="none" d="M-499,525v-24h24v24H-499z"/>
	<circle fill="none" cx="-481" cy="519" r="2"/>
	<circle fill="none" cx="-487" cy="513" r="0.5"/>
	<circle fill="none" cx="-493" cy="519" r="2"/>
	<path d="M-491.4,515.4c-0.5-0.2-1.1-0.4-1.6-0.4c-2.2,0-4,1.8-4,4s1.8,4,4,4s4-1.8,4-4c0-0.6-0.1-1.1-0.4-1.6l2.4-2.4l2.4,2.4
		c-0.2,0.5-0.4,1.1-0.4,1.6c0,2.2,1.8,4,4,4s4-1.8,4-4s-1.8-4-4-4c-0.6,0-1.1,0.1-1.6,0.4l-2.4-2.4l7-7v-3h-1
		C-479,503-491.4,515.4-491.4,515.4z M-491,519c0,1.1-0.9,2-2,2s-2-0.9-2-2s0.9-2,2-2S-491,517.9-491,519z M-479,519
		c0,1.1-0.9,2-2,2s-2-0.9-2-2s0.9-2,2-2S-479,517.9-479,519z M-486.5,513c0,0.3-0.2,0.5-0.5,0.5s-0.5-0.2-0.5-0.5s0.2-0.5,0.5-0.5
		S-486.5,512.7-486.5,513z M-496,506l6,6l2-2l-7-7h-1V506z"/>
</g>
</svg>
